<svg width="27" height="29" viewBox="0 0 27 29" fill="none" xmlns="http://www.w3.org/2000/svg">
<path d="M22.4249 15.1723C22.3874 11.5679 25.8385 9.81438 25.9963 9.73274C24.0418 7.26908 21.0123 6.93247 19.9478 6.90563C17.4034 6.67414 14.9353 8.22189 13.6392 8.22189C12.3172 8.22189 10.3213 6.928 8.1701 6.96602C5.40193 7.00292 2.81227 8.38852 1.39197 10.5402C-1.53919 14.9273 0.646893 21.3745 3.45516 24.9207C4.85994 26.6574 6.50144 28.5966 8.65001 28.5284C10.752 28.4534 11.5372 27.3698 14.0738 27.3698C16.5872 27.3698 17.3245 28.5284 19.5157 28.4847C21.7716 28.4534 23.1919 26.7402 24.5476 24.9878C26.171 22.9971 26.8229 21.0367 26.8488 20.9361C26.7957 20.9204 22.4676 19.4923 22.4249 15.1723Z" fill="#333333"/>
<path d="M18.2856 4.57281C19.4161 3.35049 20.1896 1.68755 19.9749 0C18.3386 0.062626 16.2922 0.978531 15.1138 2.17402C14.0712 3.22747 13.1399 4.95416 13.3805 6.57796C15.2186 6.6965 17.1059 5.77613 18.2856 4.57281Z" fill="#333333"/>
</svg>
