<svg width="229" height="166" viewBox="0 0 229 166" fill="none" xmlns="http://www.w3.org/2000/svg">
<g clip-path="url(#clip0_80_2844)">
<path d="M114.5 88.1875C130.053 88.1875 143.793 90.885 154.957 94.4125C165.262 97.7325 171.75 105.202 171.75 113.295V124.5H57.25V113.364C57.25 105.202 63.7383 97.7325 74.0433 94.4817C85.2071 90.885 98.9471 88.1875 114.5 88.1875ZM38.1667 89.9167C48.6625 89.9167 57.25 83.6917 57.25 76.0833C57.25 68.475 48.6625 62.25 38.1667 62.25C27.6708 62.25 19.0833 68.475 19.0833 76.0833C19.0833 83.6917 27.6708 89.9167 38.1667 89.9167ZM48.9488 97.525C45.4183 97.11 41.8879 96.8333 38.1667 96.8333C28.7204 96.8333 19.7513 98.2858 11.6408 100.845C8.184 101.916 5.23764 103.7 3.168 105.975C1.09836 108.25 -0.00328697 110.916 -2.96681e-07 113.641V124.5H42.9375V113.364C42.9375 107.623 45.1321 102.228 48.9488 97.525ZM190.833 89.9167C201.329 89.9167 209.917 83.6917 209.917 76.0833C209.917 68.475 201.329 62.25 190.833 62.25C180.338 62.25 171.75 68.475 171.75 76.0833C171.75 83.6917 180.338 89.9167 190.833 89.9167ZM229 113.641C229 108.038 224.42 103.058 217.359 100.845C208.992 98.1986 199.962 96.8329 190.833 96.8333C187.112 96.8333 183.582 97.11 180.051 97.525C183.868 102.228 186.062 107.623 186.062 113.364V124.5H229V113.641ZM114.5 41.5C130.339 41.5 143.125 50.7683 143.125 62.25C143.125 73.7317 130.339 83 114.5 83C98.6608 83 85.875 73.7317 85.875 62.25C85.875 50.7683 98.6608 41.5 114.5 41.5Z" fill="#FBF8EF" fill-opacity="0.5"/>
</g>
<defs>
<clipPath id="clip0_80_2844">
<rect width="229" height="166" fill="white"/>
</clipPath>
</defs>
</svg>
