<svg width="170" height="136" viewBox="0 0 170 136" fill="none" xmlns="http://www.w3.org/2000/svg">
<path d="M51 68C67.4422 68 80.75 54.6922 80.75 38.25C80.75 21.8078 67.4422 8.5 51 8.5C34.5578 8.5 21.25 21.8078 21.25 38.25C21.25 54.6922 34.5578 68 51 68ZM71.4 76.5H69.1953C63.6703 79.1562 57.5344 80.75 51 80.75C44.4656 80.75 38.3563 79.1562 32.8047 76.5H30.6C13.7062 76.5 0 90.2063 0 107.1V114.75C0 121.789 5.71094 127.5 12.75 127.5H89.25C96.2891 127.5 102 121.789 102 114.75V107.1C102 90.2063 88.2937 76.5 71.4 76.5ZM127.5 68C141.578 68 153 56.5781 153 42.5C153 28.4219 141.578 17 127.5 17C113.422 17 102 28.4219 102 42.5C102 56.5781 113.422 68 127.5 68ZM140.25 76.5H139.241C135.548 77.775 131.644 78.625 127.5 78.625C123.356 78.625 119.452 77.775 115.759 76.5H114.75C109.331 76.5 104.337 78.0672 99.9547 80.5906C106.436 87.5766 110.5 96.8469 110.5 107.1V117.3C110.5 117.884 110.367 118.442 110.341 119H157.25C164.289 119 170 113.289 170 106.25C170 89.8078 156.692 76.5 140.25 76.5Z" fill="#FBF8EF" fill-opacity="0.5"/>
</svg>
