<svg width="35" height="33" viewBox="0 0 35 33" fill="none" xmlns="http://www.w3.org/2000/svg">
<path d="M35 16.5606C35 7.41452 27.1649 0 17.5 0C7.8351 0 0 7.41452 0 16.5606C0 24.3269 5.6504 30.8438 13.2727 32.6337V21.6215H9.6642V16.5606H13.2727V14.3799C13.2727 8.74334 15.9684 6.13074 21.8162 6.13074C22.925 6.13074 24.8381 6.33675 25.6207 6.5421V11.1294C25.2077 11.0883 24.4902 11.0678 23.5991 11.0678C20.7298 11.0678 19.621 12.0965 19.621 14.7707V16.5606H25.3372L24.3551 21.6215H19.621V33C28.2849 32.0097 35 25.0277 35 16.5606Z" fill="#0966FF"/>
</svg>
