<svg width="27" height="29" viewBox="0 0 27 29" fill="none" xmlns="http://www.w3.org/2000/svg">
<g clip-path="url(#clip0_865_585)">
<path d="M13.4242 11.6709V17.1954H20.6489C20.3317 18.972 19.3797 20.4764 17.9518 21.4879L22.3086 25.0801C24.847 22.5903 26.3115 18.9332 26.3115 14.5889C26.3115 13.5774 26.2261 12.6047 26.0674 11.6711L13.4242 11.6709Z" fill="#4285F4"/>
<path d="M5.90076 16.9805L4.91814 17.7798L1.43994 20.6587C3.64886 25.3142 8.1762 28.5304 13.4239 28.5304C17.0484 28.5304 20.0871 27.2595 22.3083 25.0809L17.9515 21.4887C16.7555 22.3446 15.23 22.8633 13.4239 22.8633C9.93356 22.8633 6.96807 20.3605 5.90625 16.9887L5.90076 16.9805Z" fill="#34A853"/>
<path d="M1.43997 7.87207C0.524717 9.79129 0 11.957 0 14.2653C0 16.5736 0.524717 18.7394 1.43997 20.6586C1.43997 20.6715 5.9067 16.9756 5.9067 16.9756C5.63822 16.1197 5.47952 15.212 5.47952 14.2652C5.47952 13.3184 5.63822 12.4107 5.9067 11.5548L1.43997 7.87207Z" fill="#FBBC05"/>
<path d="M13.4242 5.68008C15.4012 5.68008 17.1586 6.40628 18.562 7.80687L22.4062 3.72193C20.0753 1.41363 17.0488 0 13.4242 0C8.17648 0 3.64886 3.20315 1.43994 7.87173L5.90654 11.5547C6.96823 8.18293 9.93383 5.68008 13.4242 5.68008Z" fill="#EA4335"/>
</g>
<defs>
<clipPath id="clip0_865_585">
<rect width="26.8488" height="28.5301" fill="white"/>
</clipPath>
</defs>
</svg>
