<svg width="51" height="59" viewBox="0 0 51 59" fill="none" xmlns="http://www.w3.org/2000/svg">
<path fill-rule="evenodd" clip-rule="evenodd" d="M18.1849 0.000375301C18.7873 0.00874127 19.3708 0.211731 19.8483 0.579031C20.3257 0.946331 20.6716 1.45823 20.8342 2.03829L31.088 38.4975L36.4703 24.1455C36.6698 23.6135 37.0268 23.155 37.4937 22.8312C37.9606 22.5075 38.5152 22.3339 39.0833 22.3337H47.4583C48.1987 22.3337 48.9088 22.6278 49.4323 23.1514C49.9559 23.6749 50.25 24.385 50.25 25.1254C50.25 25.8658 49.9559 26.5758 49.4323 27.0994C48.9088 27.6229 48.1987 27.917 47.4583 27.917H41.018L33.3213 48.4386C33.1148 48.9896 32.7395 49.4613 32.2489 49.7862C31.7583 50.1112 31.1776 50.2729 30.5897 50.2481C30.0018 50.2233 29.4367 50.0134 28.9752 49.6483C28.5137 49.2833 28.1794 48.7817 28.02 48.2152L18.0063 12.602L13.8299 25.9573C13.6527 26.5251 13.2987 27.0214 12.8197 27.3739C12.3406 27.7264 11.7615 27.9167 11.1667 27.917H2.79167C2.05127 27.917 1.3412 27.6229 0.81766 27.0994C0.294121 26.5758 0 25.8658 0 25.1254C0 24.385 0.294121 23.6749 0.81766 23.1514C1.3412 22.6278 2.05127 22.3337 2.79167 22.3337H9.11479L15.4798 1.96012C15.6594 1.38454 16.0205 0.88258 16.5091 0.52932C16.9978 0.176059 17.5876 -0.00950837 18.1905 0.000375301H18.1849Z" fill="#78B3CE"/>
</svg>
