<svg width="32" height="89" viewBox="0 0 32 89" fill="none" xmlns="http://www.w3.org/2000/svg">
<path d="M16.0003 19.7778C16.5672 19.7778 17.0427 19.3031 17.4268 18.3538C17.8109 17.4044 18.0024 16.231 18.001 14.8333C17.9997 13.4357 17.8076 12.2622 17.4248 11.3129C17.042 10.3636 16.5672 9.88889 16.0003 9.88889C15.4334 9.88889 14.9586 10.3636 14.5758 11.3129C14.193 12.2622 14.0009 13.4357 13.9996 14.8333C13.9982 16.231 14.1903 17.4061 14.5758 18.3587C14.9612 19.3113 15.4361 19.7844 16.0003 19.7778ZM21.6523 19.7778H25.1536C26.154 19.7778 27.021 20.6018 27.7546 22.25C28.4882 23.8981 28.9383 25.9171 29.1051 28.3069L31.9561 77.7514C32.1228 80.718 31.8147 83.3353 31.0318 85.6031C30.2488 87.871 29.2398 89.0033 28.0047 89H3.99592C2.76214 89 1.75311 87.8677 0.968823 85.6031C0.184538 83.3386 -0.123574 80.7213 0.0444868 77.7514L2.89552 28.3069C3.06225 25.9171 3.51241 23.8981 4.24602 22.25C4.97962 20.6018 5.8466 19.7778 6.84696 19.7778H10.3482C10.2482 18.9537 10.1648 18.1511 10.0981 17.3698C10.0315 16.5886 9.99811 15.7431 9.99811 14.8333C9.99811 10.713 10.5817 7.21065 11.7487 4.32639C12.9158 1.44213 14.333 0 16.0003 0C17.6676 0 19.0847 1.44213 20.2518 4.32639C21.4189 7.21065 22.0025 10.713 22.0025 14.8333C22.0025 15.7398 21.9691 16.5853 21.9024 17.3698C21.8357 18.1543 21.7524 18.957 21.6523 19.7778Z" fill="#F96E2A"/>
</svg>
