<svg width="20" height="39" viewBox="0 0 20 39" fill="none" xmlns="http://www.w3.org/2000/svg">
<path d="M19.9258 1.99348C19.8243 1.20783 19.6301 0.583495 19.3858 0.257223C19.2656 0.0924686 19.1365 0.00508013 19.0058 0H14.0058C13.7406 0 13.4862 0.338754 13.2987 0.941739C13.1112 1.54472 13.0058 2.36255 13.0058 3.2153C13.0058 4.06805 13.1112 4.88587 13.2987 5.48885C13.4862 6.09184 13.7406 6.43059 14.0058 6.43059H16.5958L11.0058 24.4041L7.7158 13.7936C7.62284 13.4923 7.51223 13.2531 7.39038 13.0898C7.26852 12.9266 7.13781 12.8425 7.0058 12.8425C6.87379 12.8425 6.74308 12.9266 6.62122 13.0898C6.49936 13.2531 6.38876 13.4923 6.2958 13.7936L0.295798 33.0854C0.20207 33.3843 0.127676 33.7399 0.0769069 34.1317C0.0261382 34.5236 0 34.9438 0 35.3683C0 35.7927 0.0261382 36.213 0.0769069 36.6048C0.127676 36.9966 0.20207 37.3522 0.295798 37.6511C0.388761 37.9525 0.499363 38.1917 0.621222 38.3549C0.743081 38.5182 0.873786 38.6022 1.0058 38.6022C1.13781 38.6022 1.26852 38.5182 1.39037 38.3549C1.51223 38.1917 1.62284 37.9525 1.7158 37.6511L7.0058 20.6101L10.2958 31.2205C10.3888 31.5219 10.4994 31.7611 10.6212 31.9243C10.7431 32.0876 10.8738 32.1716 11.0058 32.1716C11.1378 32.1716 11.2685 32.0876 11.3904 31.9243C11.5122 31.7611 11.6228 31.5219 11.7158 31.2205L18.0058 10.9642V19.2918C18.0058 20.1445 18.1112 20.9624 18.2987 21.5653C18.4862 22.1683 18.7406 22.5071 19.0058 22.5071C19.271 22.5071 19.5254 22.1683 19.7129 21.5653C19.9004 20.9624 20.0058 20.1445 20.0058 19.2918V3.2153C20.0042 2.79513 19.977 2.38003 19.9258 1.99348Z" fill="#78B3CE"/>
</svg>
