<svg width="101" height="122" viewBox="0 0 101 122" fill="none" xmlns="http://www.w3.org/2000/svg">
<path d="M73.1854 0.599792C71.9893 0.852036 70.16 1.76011 69.1749 2.56728L67.4159 4.13119L64.7423 3.12222C48.2782 -2.88115 25.7632 2.21414 17.3201 13.8677C15.7722 15.9866 14.365 17.2478 13.0282 17.6514C10.1434 18.5594 9.08803 21.4855 10.5656 24.361C11.5506 26.1772 14.7168 29.305 15.5611 29.305C15.7018 29.305 15.2093 28.4473 14.5057 27.4384C11.832 23.6547 13.5207 20.6783 21.3306 15.583C30.1958 9.88231 39.9054 6.90585 50.1075 6.90585C57.3545 6.8554 62.0686 7.81392 66.7123 10.2354C68.5417 11.194 69.8082 11.5975 70.0192 11.2444C71.3561 8.26796 76.4219 7.46078 79.7288 9.63007C82.9654 11.8498 84.4429 14.5236 84.0911 17.7523C83.7393 21.3341 81.5582 23.8061 77.1959 25.4204C74.5222 26.4294 73.6076 26.5807 71.2153 26.1772C62.9129 24.815 55.6659 26.8834 50.8111 32.0796C48.2782 34.7534 44.9713 40.7063 43.8456 44.5404C43.5641 45.3476 42.9309 45.9529 42.2976 45.9529C40.8905 45.9529 34.4878 48.2736 31.5327 49.8375C29.3515 51.0482 29.2108 51.0482 29.633 50.0897C30.0551 49.2321 29.7033 49.0303 27.4518 48.6267C24.9892 48.2231 24.7782 48.0718 24.9892 46.5583C25.2003 45.0953 24.9892 44.8935 22.386 44.1368C20.7677 43.6828 19.5012 43.2792 19.5012 43.1783C19.5012 43.0774 20.2752 41.8162 21.2602 40.3027C22.2452 38.8397 23.0192 37.2254 23.0192 36.7209C23.0192 36.1155 23.5821 35.8633 24.9892 35.8633C26.115 35.8633 27.5222 35.4597 28.1554 34.9552C29.7737 33.694 29.633 33.1895 28.0147 33.8453C24.7782 35.0561 23.5117 34.5011 20.2752 30.4148C17.1794 26.5807 15.9129 22.898 16.9683 20.8801C17.3201 20.2242 17.8126 20.5774 19.0791 22.5449C21.0491 25.5213 23.0192 26.8834 30.7587 30.6671C38.2168 34.3498 40.1165 36.2164 39.6944 39.4955C39.3426 42.4216 40.1165 42.2198 41.3126 39.1928C43.2123 34.3498 40.6794 31.5751 29.7033 26.2781C25.6928 24.361 21.3306 21.9899 19.9937 20.981L17.6015 19.2153L16.4054 20.9305C14.4353 23.9574 15.1389 26.7321 19.1494 31.3733C20.4862 32.9372 21.612 34.4003 21.612 34.5516C21.612 34.7029 20.5566 35.157 19.3605 35.5606L17.0386 36.2668L19.0087 36.3173C21.3306 36.3677 21.3306 36.5695 19.0791 40.1009C18.094 41.6648 17.3904 43.2792 17.6015 43.6323C17.8126 43.935 19.2901 44.5404 20.9084 44.8935C23.2303 45.398 23.7228 45.7007 23.3006 46.3565C22.0342 48.5258 22.5267 49.2321 25.6928 49.4843C28.6479 49.7366 28.7183 49.7366 27.2407 50.5942C26.4668 51.0987 25.8336 51.805 25.8336 52.259C25.8336 52.6626 24.356 54.0751 22.5267 55.3868C13.3096 62.1973 7.54013 70.37 7.54013 76.7769C7.54013 81.3173 10.9877 86.1099 16.6165 89.1368C18.3051 90.0953 19.853 90.7512 19.9937 90.6503C20.1345 90.5494 19.5012 89.2881 18.5162 87.8756C14.7168 82.5281 13.591 75.1626 15.6315 69.4115C18.9383 60.2298 28.7183 51.9059 39.7647 48.9799C41.9459 48.3745 44.3381 47.5168 45.112 47.0628C46.3081 46.3061 46.2378 46.407 44.9009 48.2231C43.0716 50.7455 43.0012 52.259 44.8306 54.6805C46.7303 57.2534 46.5896 58.0606 43.8456 60.6334C40.1869 64.0639 36.2467 68.6547 36.9503 68.6547C37.3021 68.6547 38.9908 68.0998 40.6794 67.444C45.8156 65.3756 54.6105 63.5594 61.5058 63.1559C67.4159 62.8027 68.1899 62.6009 71.4968 60.8857C75.0147 59.0191 75.1555 59.0191 78.6031 59.5236C88.5237 61.037 92.6749 64.8207 92.6749 72.4384C92.6749 85.0505 73.889 102.657 52.2183 110.376C46.2378 112.494 42.0866 113.201 36.5282 112.948C30.3366 112.696 25.8336 110.83 18.3051 105.381C7.54013 97.6626 1.98174 89.4899 1.84102 81.2164C1.77066 78.4417 1.7003 78.1895 1.13743 79.5011C-0.199399 82.629 -0.410477 89.4395 0.785632 93.3745C2.96677 100.79 8.31408 107.147 18.7273 114.563C25.7632 119.608 28.6479 120.768 35.0506 121.02C45.8156 121.474 57.4953 117.035 71.2857 107.248C78.0402 102.405 81.2064 99.6805 86.9055 93.6267C95.5597 84.3442 100.203 76.3229 100.907 69.3106C101.681 61.1884 97.7408 57.8588 84.7243 55.8408L82.7543 55.4877L84.2318 54.1256C89.5088 49.2321 91.9714 44.8431 91.9714 40.4036C91.9714 35.5606 87.6794 30.8689 81.136 28.5987L78.9549 27.842L80.8546 27.3375C81.91 27.0348 84.0207 25.9754 85.639 24.9664C93.5896 19.8207 91.1974 7.20854 81.2064 1.91145C78.392 0.398003 76.0701 0.0448608 73.1854 0.599792ZM57.636 2.61773C58.2692 2.86997 59.395 3.07177 60.0282 3.07177C60.7318 3.07177 61.7872 3.37446 62.3501 3.77805C62.9833 4.13119 64.6719 4.58522 66.0791 4.78702C68.3306 5.08971 68.8231 4.93836 69.7378 3.92939C71.145 2.41594 75.0851 1.40697 77.2662 2.01235C80.7842 2.97087 86.9055 8.06616 85.9204 9.17603C85.639 9.52917 85.7094 9.63007 86.1315 9.47872C87.2573 8.97424 87.8202 10.4877 88.2423 14.9776C88.5237 17.5505 88.383 19.4171 87.8905 20.0224C87.1166 20.9305 87.1166 20.9305 87.0462 20.0729C87.0462 19.5684 86.8351 19.2657 86.5537 19.3666C86.2019 19.518 85.9908 18.1558 85.9908 16.3902C85.9908 14.6245 85.7797 13.1615 85.4983 13.1615C85.1465 13.1615 84.9354 12.7579 84.9354 12.3038C84.9354 11.3453 80.5731 8.31841 78.4624 7.81392C77.7588 7.66257 77.3366 7.30943 77.5477 7.05719C78.3216 6.19957 75.7887 6.60316 72.13 7.91482L68.5417 9.22648L64.9534 7.91482C58.1989 5.49329 49.7557 4.78702 42.7198 6.14912C41.383 6.40137 39.2722 6.60316 38.0057 6.60316C36.8096 6.60316 35.6839 6.80495 35.5432 7.00674C35.121 7.76347 26.6779 10.7399 25.9039 10.4372C25.4818 10.2354 25.2707 10.3868 25.5521 10.7904C25.7632 11.2949 25.2003 11.6984 23.6524 12.102C19.7123 13.0606 20.2048 12.102 25.4114 8.72199C26.115 8.26796 27.2407 7.51123 27.874 7.05719C28.5072 6.60316 30.4773 5.69508 32.377 5.08971C34.2063 4.48432 35.8949 3.77805 36.0357 3.5258C36.2467 3.32401 36.9503 3.27356 37.5132 3.4249C38.1464 3.57625 38.85 3.47536 39.1315 3.22311C40.2572 1.91145 54.5402 1.45742 57.636 2.61773ZM78.9549 27.4384C78.6734 28.2455 79.0252 28.9014 80.3621 29.7085C81.3471 30.3139 82.3321 30.8184 82.6136 30.8184C83.3172 30.8184 87.7498 34.4507 88.8755 36.065C90.2827 37.8812 90.5642 41.0594 89.5791 43.8341C88.5941 46.7097 87.398 46.5583 87.398 43.5314C87.3276 40.7568 83.88 35.0561 81.9803 34.602C81.2767 34.4003 80.7842 34.148 80.7842 33.9462C80.9953 32.8868 80.6435 32.3319 79.8695 32.6346C79.4474 32.8363 78.6734 32.5841 78.1809 32.0796C76.2812 30.213 66.8531 29.1536 61.9279 30.213C60.7318 30.5157 59.5357 30.6166 59.3246 30.4148C59.1135 30.2635 58.9025 30.4148 58.9025 30.7175C58.9025 31.0707 58.2692 31.3229 57.4953 31.3229C56.0881 31.3229 55.6659 30.5157 56.651 29.5068C56.9324 29.2041 58.2692 28.5482 59.6764 28.0942C61.6465 27.4384 63.8276 27.287 70.16 27.3879C76.0701 27.4888 78.1809 27.3879 78.392 26.8834C78.9549 25.824 79.377 26.2276 78.9549 27.4384ZM55.5956 31.3229C55.8066 31.8274 55.7363 32.2814 55.4548 32.231C54.118 32.1301 53.2737 32.3823 53.6255 32.7859C53.8366 33.0381 53.3441 33.5931 52.5701 33.9967C51.7962 34.3498 51.374 34.8543 51.7258 35.1065C52.0072 35.3588 51.7962 35.3588 51.374 35.157C50.7408 34.9047 51.0926 34.1985 52.7812 32.5841C53.9773 31.3733 55.1031 30.3644 55.1031 30.3139C55.1734 30.3139 55.3845 30.768 55.5956 31.3229ZM72.2004 31.676C76.5627 32.685 81.6285 35.7119 83.6689 38.5875C87.8202 44.1872 83.9504 51.7041 74.8037 55.7904C73.6076 56.2949 71.9893 57.3038 71.0746 58.0606C67.627 61.037 61.9279 61.7938 55.3845 60.2803C51.3036 59.3218 50.6001 58.7668 48.0671 54.6805C45.1824 49.8375 45.6045 46.7097 50.1075 40.2523C53.8366 34.8038 56.4399 32.8363 61.4354 31.5751C65.0941 30.6166 67.8381 30.6671 72.2004 31.676ZM81.6989 55.2355C81.2064 56.194 82.895 57.0011 86.0612 57.3543C87.5387 57.5056 89.5088 57.9597 90.4234 58.3633C91.2678 58.7668 91.9714 58.9686 91.9714 58.8173C91.9714 58.6659 93.2378 59.4227 94.7857 60.4821C96.2633 61.592 97.6705 62.3487 97.8815 62.2478C99.148 61.3397 99.6405 68.9574 98.5851 73.6996C98.2333 75.5157 98.0223 75.768 97.5297 74.9608C97.0372 74.0527 96.9669 74.1032 96.9669 75.2635C96.8965 77.0796 94.2932 82.4776 93.4489 82.6794C93.0267 82.7803 92.6749 83.3857 92.6749 84.0415C92.6749 84.6973 92.3935 85.3532 92.0417 85.5045C90.6345 86.1603 90.7752 84.2938 92.4639 80.8128C94.645 76.1716 94.9968 73.3464 94.0118 69.0583C93.2378 65.5269 90.0013 61.2388 87.8202 60.7343C85.9204 60.3307 82.121 58.8677 82.121 58.565C82.121 58.4137 80.8546 58.2624 79.3067 58.2624C75.5073 58.1615 75.0851 57.7579 77.5477 56.3958C78.6031 55.7904 79.8695 55.0337 80.2917 54.731C81.2767 53.9742 82.1914 54.3274 81.6989 55.2355ZM52.9923 61.2893L55.7363 62.046H53.2034C51.7962 62.0964 48.9114 62.7523 46.7303 63.509L42.7902 64.972L45.5342 62.8027C47.0821 61.592 48.3486 60.3307 48.3486 60.0281C48.3486 59.6245 48.5596 59.574 49.3336 60.0281C49.8261 60.3307 51.5147 60.8857 52.9923 61.2893ZM14.2243 67.4944C13.9428 67.9989 13.6614 68.9574 13.591 69.6637C13.591 70.37 13.1689 70.8745 12.6764 70.7736C12.1838 70.7231 11.7617 71.0258 11.7617 71.4798C11.7617 71.8834 12.0431 72.1357 12.3246 71.9843C12.6764 71.833 13.0282 73.8005 13.0985 76.3733C13.38 82.8307 13.4503 83.2848 14.0835 83.2848C14.365 83.2848 14.5761 83.537 14.5761 83.8902C14.5761 84.1929 14.0835 84.092 13.3096 83.6379C12.606 83.1334 11.832 82.8812 11.621 83.0325C11.4099 83.1839 11.0581 82.9821 10.847 82.5281C10.5656 82.1245 10.7063 81.7713 11.1285 81.7713C11.5506 81.7713 11.3395 81.4182 10.7063 80.9642C8.03264 78.9967 11.1988 66.7377 14.5057 66.6368C14.6464 66.6368 14.5057 67.0404 14.2243 67.4944ZM5.99222 96.25C7.04761 98.0157 9.79163 100.942 10.4249 100.942C10.7767 100.942 11.0581 101.194 11.0581 101.497C11.0581 101.85 11.621 102.405 12.3246 102.808C13.0282 103.262 13.0985 103.414 12.4653 103.161C11.9024 102.96 13.0985 103.969 15.1389 105.381C17.1794 106.794 18.9383 107.904 19.0791 107.853C19.1494 107.803 20.2048 108.408 21.4009 109.266C24.5671 111.485 26.4668 112.545 27.2407 112.545C27.6629 112.545 28.859 112.948 29.844 113.402C31.3216 114.109 33.1509 114.26 38.0761 114.26C43.7752 114.21 45.1824 114.008 50.8111 112.293C54.3291 111.284 57.2842 110.224 57.3545 109.972C57.4953 109.72 57.9878 109.518 58.4803 109.518C58.9728 109.518 59.9578 109.064 60.6614 108.509C61.365 107.954 62.2093 107.5 62.5611 107.5C62.9129 107.5 64.0387 106.895 65.0941 106.188C66.1495 105.482 67.7677 104.624 68.7528 104.221C70.6525 103.464 76.4219 99.2769 77.8291 97.6626C78.4624 96.9563 78.6031 96.9059 78.3216 97.5112C78.1106 98.1166 78.2513 98.268 79.0252 98.0662C79.5177 97.9148 80.0103 98.0662 80.0103 98.3689C80.0103 98.6716 79.5177 98.9238 78.9549 98.9238C78.392 98.9238 77.8995 99.176 77.8995 99.5292C77.8995 99.8319 77.407 100.437 76.8441 100.891C76.2812 101.345 74.874 102.405 73.6779 103.313C72.5522 104.17 71.5671 105.129 71.5671 105.432C71.5671 105.936 70.5821 106.188 69.2453 106.037C68.8935 105.987 68.8231 106.188 69.0342 106.441C69.2453 106.693 68.4713 107.399 67.3456 108.055C66.2198 108.711 65.2348 109.468 65.2348 109.77C65.2348 110.325 60.7318 112.545 59.606 112.545C59.2543 112.545 58.9025 112.747 58.9025 113.049C58.9025 113.302 58.4803 113.554 57.9878 113.554C57.4249 113.554 56.4399 114.008 55.6659 114.613C52.7812 116.883 42.8605 119.709 37.5836 119.709C32.3066 119.709 29.5626 119.255 27.8036 118.094C26.9593 117.539 25.9743 117.085 25.6225 117.085C24.4264 117.085 12.7467 108.257 11.7617 106.642C11.1988 105.734 10.4952 105.179 10.2138 105.28C9.93235 105.432 9.65091 105.179 9.65091 104.776C9.65091 104.372 8.94732 103.666 8.103 103.262C7.25869 102.808 6.90689 102.455 7.39941 102.455C7.82157 102.455 8.24372 102.203 8.24372 101.9C8.24372 101.648 7.96229 101.497 7.68085 101.648C6.83654 102.001 4.02216 97.4608 4.02216 95.8464C4.02216 95.0393 5.42935 95.3924 5.99222 96.25Z" fill="#101010" fill-opacity="0.8"/>
<path d="M55.0327 46.4565C54.1883 47.4655 56.6509 49.4834 58.7617 49.4834H60.6614L58.9728 48.5249C57.9878 48.0204 56.862 47.2132 56.3695 46.7087C55.8066 46.1538 55.3845 46.0529 55.0327 46.4565Z" fill="#101010" fill-opacity="0.8"/>
<path d="M64.9534 52.9145C64.7423 53.2172 65.2348 54.0748 66.1495 54.8315C67.416 55.8909 68.1196 56.0927 69.4564 55.79C71.0747 55.4369 71.0747 55.3865 68.9639 54.7811C67.7678 54.4279 66.5013 53.7217 66.0791 53.2676C65.657 52.7127 65.2348 52.5613 64.9534 52.9145Z" fill="#101010" fill-opacity="0.8"/>
<path d="M53.9773 55.5383C53.9773 56.1941 54.6105 56.6481 55.7363 56.8499C58.3396 57.304 58.4803 56.9004 56.0881 55.5887C54.0477 54.5293 53.9773 54.5293 53.9773 55.5383Z" fill="#101010" fill-opacity="0.8"/>
<path d="M27.5222 59.7263C21.4713 68.9079 23.371 76.0212 32.377 77.7869C39.6944 79.1994 47.5043 76.9797 55.4549 71.1781C59.5357 68.2017 61.5058 67.1422 62.7723 67.1422C64.883 67.1422 68.1196 66.0324 69.386 64.9225C70.5821 63.9135 69.5268 63.9135 67.7678 64.8721C66.9938 65.2756 64.883 65.7801 62.9833 65.9315C60.38 66.1837 58.8321 66.7386 56.4399 68.2521C45.7453 75.0122 35.1914 76.4752 30.2662 71.8339C28.4369 70.1187 28.2962 69.6647 28.3665 65.427C28.4369 62.4505 28.859 60.029 29.633 58.6164C31.5327 54.9337 30.2662 55.64 27.5222 59.7263ZM28.859 72.8934C29.4219 73.9023 35.4728 76.1725 37.0911 75.9707C37.865 75.8698 38.4983 75.9707 38.4983 76.2734C38.4983 76.5256 37.0207 76.7274 35.2617 76.7274C32.6584 76.7274 32.0956 76.5761 32.4474 75.9707C32.6584 75.5167 32.4474 75.214 31.7438 75.214C31.1809 75.214 30.8995 75.4158 31.1105 75.7185C31.3216 75.9707 31.392 76.223 31.1105 76.223C30.8995 76.223 30.4069 75.6176 29.9848 74.8104C29.4923 74.0032 29.0701 73.7005 28.859 74.1041C28.5776 74.6086 28.2258 74.5077 27.5222 73.8519C27.0297 73.3474 26.5372 72.7925 26.5372 72.5402C26.5372 71.8844 28.5072 72.1871 28.859 72.8934Z" fill="#101010" fill-opacity="0.8"/>
<path d="M72.2004 65.4259C64.1091 69.2095 59.8172 73.2958 51.163 85.2521C45.6046 92.9707 41.0312 97.2084 36.4579 98.9236C34.7693 99.5795 34.3471 99.8822 35.2618 99.9326C37.0208 99.9326 45.5342 95.7958 48.4893 93.4752C52.0777 90.5997 56.0178 86.3115 60.6615 80.0055C66.2903 72.3878 69.1046 69.3609 73.1151 66.4853C75.0148 65.1232 76.4924 63.9124 76.3516 63.8115C76.1406 63.7106 74.3112 64.4169 72.2004 65.4259Z" fill="#101010" fill-opacity="0.8"/>
</svg>
